<svg width="35" height="35" viewBox="0 0 35 35" fill="none" xmlns="http://www.w3.org/2000/svg">
<path d="M4.01056 4.73938L7.04389 5.26438L8.44827 21.9958C8.56056 23.3623 9.70243 24.4108 11.0733 24.4065H26.9822C28.2904 24.4094 29.4001 23.4469 29.5854 22.1519L30.9693 12.5881C31.1239 11.5192 30.3816 10.5275 29.3141 10.3729C29.2208 10.3598 7.53098 10.3525 7.53098 10.3525" stroke="#FF7074" stroke-width="2.5" stroke-linecap="round" stroke-linejoin="round"/>
<path d="M20.5991 15.7424H24.6431" stroke="#FF7074" stroke-width="2.5" stroke-linecap="round" stroke-linejoin="round"/>
<path fill-rule="evenodd" clip-rule="evenodd" d="M10.4335 29.4619C10.8724 29.4619 11.2268 29.8177 11.2268 30.2552C11.2268 30.6942 10.8724 31.05 10.4335 31.05C9.99451 31.05 9.64014 30.6942 9.64014 30.2552C9.64014 29.8177 9.99451 29.4619 10.4335 29.4619Z" fill="#FF7074" stroke="#FF7074" stroke-width="2.5" stroke-linecap="round" stroke-linejoin="round"/>
<path fill-rule="evenodd" clip-rule="evenodd" d="M26.8839 29.4619C27.3229 29.4619 27.6787 29.8177 27.6787 30.2552C27.6787 30.6942 27.3229 31.05 26.8839 31.05C26.445 31.05 26.0906 30.6942 26.0906 30.2552C26.0906 29.8177 26.445 29.4619 26.8839 29.4619Z" fill="#130F26" fill-opacity="0.4" stroke="#FF7074" stroke-width="2.5" stroke-linecap="round" stroke-linejoin="round"/>
<circle cx="21.5" cy="5.5" r="5" fill="#FE554A" stroke="white"/>
<path d="M22.6245 6.62891V7H20.2979V6.67529L21.4624 5.37891C21.6056 5.2194 21.7163 5.08431 21.7944 4.97363C21.8742 4.86133 21.9295 4.76123 21.9604 4.67334C21.993 4.58382 22.0093 4.49268 22.0093 4.3999C22.0093 4.28271 21.9849 4.17692 21.936 4.08252C21.8888 3.98649 21.8188 3.90999 21.7261 3.85303C21.6333 3.79606 21.521 3.76758 21.3892 3.76758C21.2313 3.76758 21.0994 3.7985 20.9937 3.86035C20.8895 3.92057 20.8114 4.00521 20.7593 4.11426C20.7072 4.22331 20.6812 4.34863 20.6812 4.49023H20.2295C20.2295 4.29004 20.2734 4.10693 20.3613 3.94092C20.4492 3.7749 20.5794 3.64307 20.752 3.54541C20.9245 3.44613 21.1369 3.39648 21.3892 3.39648C21.6138 3.39648 21.8058 3.43636 21.9653 3.51611C22.1248 3.59424 22.2469 3.70492 22.3315 3.84814C22.4178 3.98975 22.4609 4.15576 22.4609 4.34619C22.4609 4.45036 22.443 4.55615 22.4072 4.66357C22.373 4.76937 22.325 4.87516 22.2632 4.98096C22.203 5.08675 22.1322 5.19092 22.0508 5.29346C21.971 5.396 21.8856 5.49691 21.7944 5.59619L20.8423 6.62891H22.6245Z" fill="white"/>
</svg>
