<svg width="29" height="31" viewBox="0 0 29 31" fill="none" xmlns="http://www.w3.org/2000/svg">
<path d="M10.3346 28.3072V23.8347C10.3346 22.7013 11.2562 21.7806 12.3977 21.7734H16.5892C17.7359 21.7734 18.6654 22.6963 18.6654 23.8347V23.8347V28.2942C18.6654 29.2772 19.4642 30.0761 20.4543 30.0832H23.3139C24.6495 30.0867 25.9315 29.5624 26.8771 28.626C27.8227 27.6896 28.3542 26.4181 28.3542 25.0922V12.3877C28.3541 11.3166 27.8759 10.3006 27.0484 9.6134L17.3335 1.89993C15.6353 0.550763 13.2099 0.594346 11.562 2.00364L2.05607 9.6134C1.18942 10.2803 0.671441 11.2993 0.645844 12.3877V25.0792C0.645844 27.8429 2.90244 30.0832 5.6861 30.0832H8.48043C8.95714 30.0867 9.41551 29.9011 9.75382 29.5677C10.0921 29.2342 10.2824 28.7805 10.2824 28.3072H10.3346Z" fill="#FF7074"/>
</svg>
